Coordinates
version=1
nRows=25
nColumns=34
inDegrees=no

Units are S.I. units (second, meters, Newtons, ...)
If the header above contains a line with 'inDegrees', this indicates whether rotational values are in degrees (yes) or radians (no).

endheader
time	pelvis_tilt	pelvis_list	pelvis_rotation	pelvis_tx	pelvis_ty	pelvis_tz	hip_flexion_r	hip_adduction_r	hip_rotation_r	knee_angle_r	ankle_angle_r	subtalar_angle_r	mtp_angle_r	hip_flexion_l	hip_adduction_l	hip_rotation_l	knee_angle_l	ankle_angle_l	subtalar_angle_l	mtp_angle_l	lumbar_extension	lumbar_bending	lumbar_rotation	arm_flex_r	arm_add_r	arm_rot_r	elbow_flex_r	pro_sup_r	arm_flex_l	arm_add_l	arm_rot_l	elbow_flex_l	pro_sup_l
1.84	-0.398378	0.0778102	-0.0237834	-0.297672	0.595731	-0.607976	1.71324	-0.0769502	0.256485	1.94524	0.600185	-0.246048	-0.128304	1.70832	-0.037779	0.0237241	1.89502	0.559128	-0.321931	-0.129477	-0.56901	-0.00137651	-0.115435	1.28314	0.0945842	0.282968	2.05488	1.61726	1.4571	0.00930224	0.400718	1.98695	1.50164
1.85	-0.403533	0.0796999	-0.0251333	-0.294414	0.600677	-0.60809	1.7017	-0.0722641	0.258464	1.93132	0.593632	-0.254706	-0.1283	1.69764	-0.0356796	0.0226238	1.88173	0.552565	-0.327468	-0.12949	-0.549906	-0.00417068	-0.113657	1.34874	0.104956	0.299346	2.0776	1.61945	1.51968	0.0159294	0.407225	2.01552	1.50282
1.86	-0.407631	0.0820192	-0.0273607	-0.290794	0.606154	-0.608105	1.68849	-0.0670558	0.260658	1.9165	0.585759	-0.263693	-0.128297	1.68512	-0.0341142	0.021383	1.86785	0.544518	-0.333239	-0.129503	-0.529413	-0.00806171	-0.110427	1.41385	0.110425	0.311905	2.09955	1.62222	1.58189	0.0161298	0.412928	2.04179	1.49988
1.87	-0.410445	0.0845841	-0.0303325	-0.286827	0.612176	-0.608016	1.67341	-0.0615396	0.262917	1.90082	0.576631	-0.273065	-0.128294	1.67064	-0.0331508	0.0200084	1.8534	0.535097	-0.338998	-0.129516	-0.507948	-0.0128317	-0.105891	1.4785	0.110861	0.320919	2.11951	1.62545	1.64394	0.0100528	0.41868	2.0649	1.49289
1.88	-0.411897	0.0872037	-0.0338557	-0.282533	0.618757	-0.607838	1.65629	-0.0559839	0.265076	1.88418	0.566346	-0.282889	-0.12829	1.65412	-0.032758	0.0185042	1.83828	0.524439	-0.344564	-0.129529	-0.485834	-0.0181676	-0.100334	1.5426	0.106417	0.326835	2.13618	1.62881	1.70585	-0.00195297	0.425252	2.08423	1.48229
1.89	-0.412041	0.089701	-0.0377031	-0.277936	0.625915	-0.6076	1.637	-0.05068	0.266975	1.86638	0.555018	-0.293221	-0.128287	1.63552	-0.0328231	0.0168745	1.82225	0.512688	-0.349793	-0.129542	-0.463311	-0.0237113	-0.0941041	1.60601	0.0974713	0.330295	2.14835	1.6317	1.76757	-0.0193395	0.433369	2.09937	1.46886
1.9	-0.411023	0.0919357	-0.0416434	-0.273057	0.633668	-0.607334	1.61546	-0.0459056	0.268484	1.84715	0.542758	-0.304076	-0.128284	1.6148	-0.0331954	0.0151123	1.80501	0.499988	-0.354539	-0.129556	-0.440555	-0.0291287	-0.0875471	1.66851	0.084524	0.332129	2.15497	1.63316	1.829	-0.0413499	0.443729	2.11006	1.45364
1.91	-0.409023	0.0938234	-0.0454709	-0.267912	0.642029	-0.607072	1.59163	-0.0418922	0.269526	1.82621	0.529667	-0.315404	-0.12828	1.59195	-0.0337414	0.0131789	1.78622	0.486494	-0.358625	-0.129569	-0.417686	-0.0341771	-0.0809404	1.7299	0.0681043	0.333354	2.15525	1.63195	1.89005	-0.0670148	0.45699	2.11608	1.43767
1.92	-0.406231	0.0953411	-0.0490244	-0.26252	0.650999	-0.606833	1.56555	-0.038804	0.27007	1.80333	0.515823	-0.327088	-0.128277	1.56697	-0.0343877	0.0109916	1.76557	0.472365	-0.361848	-0.129582	-0.394766	-0.038746	-0.0744639	1.78999	0.0486958	0.335151	2.14869	1.62662	1.9507	-0.0951797	0.473765	2.11723	1.42165
1.93	-0.402836	0.0965127	-0.0521926	-0.256895	0.660567	-0.606621	1.53731	-0.0367317	0.270117	1.77835	0.501276	-0.33896	-0.128274	1.53991	-0.035132	0.00843534	1.74279	0.457753	-0.364016	-0.129595	-0.371791	-0.0428539	-0.0682003	1.8487	0.0267075	0.338821	2.13511	1.61571	2.01098	-0.124562	0.494578	2.11323	1.4059
1.94	-0.399039	0.0973747	-0.0549074	-0.251048	0.670726	-0.606428	1.50711	-0.0356992	0.269648	1.75113	0.486044	-0.350855	-0.12827	1.51088	-0.0360285	0.00539974	1.71768	0.442764	-0.364999	-0.129608	-0.348683	-0.0466043	-0.06215	1.90606	0.00248895	0.34572	2.11454	1.59808	2.07094	-0.153826	0.519807	2.10369	1.39066
1.95	-0.395058	0.0979327	-0.0571286	-0.244995	0.681469	-0.606245	1.47518	-0.035673	0.26858	1.72159	0.470107	-0.362665	-0.128267	1.48008	-0.0371661	0.00183178	1.6901	0.42743	-0.364757	-0.129621	-0.325284	-0.050107	-0.0562348	1.96221	-0.0236205	0.357158	2.08718	1.57314	2.13059	-0.181659	0.549605	2.08806	1.37634
1.96	-0.391126	0.098123	-0.0588413	-0.238742	0.692784	-0.60605	1.4418	-0.0365743	0.266738	1.68962	0.453412	-0.374365	-0.128264	1.4478	-0.03865	-0.00221197	1.66	0.41168	-0.36335	-0.129634	-0.301397	-0.0533751	-0.0502871	2.01744	-0.051228	0.374285	2.05319	1.54114	2.18987	-0.206848	0.583811	2.06566	1.36349
1.97	-0.387475	0.0978007	-0.0600577	-0.23231	0.704657	-0.605835	1.40723	-0.0382922	0.26386	1.65512	0.435864	-0.386009	-0.12826	1.4144	-0.0405836	-0.00655419	1.62742	0.395327	-0.360941	-0.129648	-0.276821	-0.0562808	-0.0440633	2.07211	-0.0798229	0.397951	2.01259	1.50333	2.24855	-0.228343	0.621892	2.03572	1.35275
1.98	-0.384298	0.0967643	-0.0608203	-0.22572	0.71708	-0.605599	1.37165	-0.0407017	0.259659	1.61793	0.41731	-0.397689	-0.128257	1.38022	-0.0430481	-0.010927	1.59245	0.378071	-0.357808	-0.129661	-0.251402	-0.0585609	-0.0372728	2.12657	-0.108735	0.428573	1.96516	1.46203	2.30625	-0.245314	0.66294	1.99738	1.3448
1.99	-0.381698	0.0947977	-0.0612036	-0.218998	0.730052	-0.605361	1.33515	-0.0436825	0.253897	1.57786	0.397492	-0.409495	-0.128254	1.34553	-0.0460854	-0.0150328	1.55518	0.359508	-0.354362	-0.129674	-0.225095	-0.0598741	-0.0296141	2.18107	-0.137123	0.466043	1.91042	1.42045	2.36239	-0.257184	0.705749	1.94976	1.34031
2	-0.379648	0.0917249	-0.0613105	-0.21217	0.74359	-0.605151	1.29763	-0.0471375	0.246456	1.53471	0.376002	-0.421468	-0.12825	1.31042	-0.0496881	-0.0186177	1.51567	0.339127	-0.351123	-0.129687	-0.198018	-0.0598828	-0.0208187	2.23571	-0.164004	0.509717	1.84773	1.38217	2.41628	-0.263635	0.748962	1.89206	1.33989
2.01	-0.377952	0.0874644	-0.0612614	-0.205261	0.757725	-0.604997	1.25884	-0.0510091	0.237371	1.48818	0.352214	-0.433567	-0.128247	1.27471	-0.0537968	-0.0215367	1.47384	0.316319	-0.348669	-0.1297	-0.170487	-0.0583394	-0.0107021	2.2903	-0.188306	0.558496	1.77648	1.35013	2.46722	-0.264612	0.79131	1.82357	1.34413
2.02	-0.376238	0.0820695	-0.0611774	-0.198288	0.772518	-0.604936	1.21832	-0.0552956	0.226817	1.43795	0.325247	-0.445606	-0.128244	1.23792	-0.0582993	-0.0237974	1.42941	0.290376	-0.347528	-0.129713	-0.143029	-0.0551534	0.000779378	2.34439	-0.208948	0.610904	1.69623	1.32639	2.5146	-0.260323	0.831875	1.74392	1.35347
2.03	-0.373991	0.0757365	-0.0611584	-0.191267	0.788052	-0.605003	1.17547	-0.0600629	0.215043	1.38361	0.293964	-0.457185	-0.12824	1.19929	-0.0630238	-0.0255731	1.38185	0.260489	-0.348037	-0.129727	-0.116344	-0.0504281	0.0134866	2.39726	-0.224937	0.665196	1.60693	1.31212	2.558	-0.251229	0.870321	1.65319	1.36805
2.04	-0.370627	0.068784	-0.0612588	-0.184209	0.804429	-0.605223	1.1296	-0.0654448	0.202265	1.32461	0.257014	-0.467607	-0.128237	1.15783	-0.0677332	-0.0271867	1.33033	0.22575	-0.350197	-0.12974	-0.0912173	-0.0444544	0.0270924	2.44801	-0.23549	0.719503	1.50907	1.30772	2.59724	-0.237997	0.906985	1.55214	1.38761
2.05	-0.3656	0.0616023	-0.061467	-0.177119	0.821742	-0.605601	1.08003	-0.0716224	0.188534	1.26033	0.212942	-0.475797	-0.128234	1.11247	-0.0721339	-0.0290786	1.27377	0.185156	-0.353541	-0.129753	-0.0683919	-0.0376664	0.041119	2.49561	-0.240169	0.772027	1.40376	1.31295	2.6323	-0.221426	0.942784	1.44239	1.4115
2.06	-0.358507	0.0545801	-0.0616947	-0.170005	0.840069	-0.606132	1.0262	-0.0787778	0.173599	1.19001	0.160359	-0.480245	-0.12823	1.06224	-0.0759106	-0.0317686	1.21085	0.137648	-0.357039	-0.129766	-0.0484337	-0.0305629	0.0550058	2.53904	-0.238989	0.821248	1.29282	1.32699	2.66324	-0.202365	0.978925	1.32638	1.43902
2.07	-0.349182	0.0480229	-0.0617842	-0.162875	0.859445	-0.606796	0.967819	-0.0870226	0.156812	1.1129	0.0981891	-0.479016	-0.128227	1.00642	-0.0787871	-0.0358311	1.14023	0.0822214	-0.359089	-0.12978	-0.031634	-0.0236045	0.0681791	2.57744	-0.232451	0.866109	1.17865	1.3485	2.69009	-0.181681	1.01652	1.20743	1.46913
2.08	-0.337753	0.0420849	-0.0615334	-0.155757	0.879857	-0.60757	0.90491	-0.0963065	0.137118	1.0284	0.0259388	-0.469867	-0.128224	0.94478	-0.0806041	-0.0418875	1.0607	0.0181075	-0.3576	-0.129793	-0.0179561	-0.0171057	0.0801156	2.6102	-0.221478	0.906097	1.06411	1.3755	2.71279	-0.160262	1.05618	1.0896	1.50034
